<svg xmlns="http://www.w3.org/2000/svg" xmlns:xlink="http://www.w3.org/1999/xlink" width="30" height="30" viewBox="0 0 30 30"><defs><linearGradient id="a" x1="8.19" y1="-606.52" x2="21.806" y2="-627.481" gradientTransform="matrix(1, 0, 0, -1, 0, -602)" gradientUnits="userSpaceOnUse"><stop offset="0" stop-color="#fad15a"/><stop offset="0.6" stop-color="#f8c245"/><stop offset="1" stop-color="#f6b734"/></linearGradient></defs><title>talented</title><path d="M14.978,30a3.646,3.646,0,0,1-1.8-.49l-9.84-5.675a3.669,3.669,0,0,1-1.812-3.15V9.314a3.664,3.664,0,0,1,1.8-3.145l9.842-5.681a3.638,3.638,0,0,1,3.64,0l9.84,5.676a3.657,3.657,0,0,1,1.829,3.129V20.685a3.66,3.66,0,0,1-1.8,3.145l-9.841,5.689A3.667,3.667,0,0,1,15.023,30H14.978Z" fill="#fff"/><path d="M15,28.75a2.209,2.209,0,0,1-1.1-.3L3.89,22.682a2.209,2.209,0,0,1-1.091-1.9V9.219a2.209,2.209,0,0,1,1.091-1.9l10-5.771a2.2,2.2,0,0,1,2.2,0L26.093,7.316A2.209,2.209,0,0,1,27.2,9.211V20.779a2.209,2.209,0,0,1-1.091,1.9l-10,5.78A2.209,2.209,0,0,1,15,28.75Z" fill="url(#a)"/><path d="M8.28,12.423a2.834,2.834,0,0,0,3.006.721h0l8,8.536a1.323,1.323,0,0,0,.344.687,1.34,1.34,0,0,0,1.889.052h0a1.34,1.34,0,0,0-.584-2.267l-8.012-8.5h0a2.825,2.825,0,0,0-3.7-3.761l1.864,1.958-0.429.97-1,.369L7.8,9.237A2.825,2.825,0,0,0,8.28,12.423Zm11.868,8.519h0a0.687,0.687,0,0,1,.945,1h0A0.687,0.687,0,0,1,20.148,20.942Z" fill="#1b75a0"/><path d="M14.326,14.759l3.538-3.95L18.431,11.3l0.515,0.429-3.2,4.225s-5.779,7.823-6.87,6.87S14.326,14.759,14.326,14.759Z" fill="#66bfe6"/><path d="M19.041,7.932a3.212,3.212,0,0,0-1.3,3.006l1.091,0.936c1.992-.258,2.456-1.3,2.576-2.327s-0.077-1.924.4-2.276A4.74,4.74,0,0,0,19.041,7.932Z" fill="#0094d5"/></svg>